<svg width="35" height="35" viewBox="0 0 35 35" fill="none" xmlns="http://www.w3.org/2000/svg">
<rect width="35" height="35" rx="4" fill="white"/>
<g clip-path="url(#clip0_1914_48)">
<path d="M23.5658 23.0023C19.5705 26.1859 13.9857 25.3049 11.0275 21.6537C8.1723 18.1286 8.35086 13.0432 11.4483 9.82462C14.6487 6.4993 19.6804 6.05538 23.3279 8.78319C24.6347 9.76031 25.6106 11.0034 26.2461 12.5081C26.8855 14.0215 27.0797 15.5962 26.858 17.2201C26.637 18.8366 25.992 20.277 24.9425 21.6212C25.0274 21.6768 25.1179 21.7167 25.1829 21.7817C26.3367 22.9305 27.4861 24.0837 28.6399 25.2325C28.9134 25.5047 29.0495 25.8219 28.9683 26.204C28.8073 26.9645 27.9019 27.2579 27.3213 26.7359C27.0491 26.4918 26.7987 26.2227 26.5402 25.9642C25.5924 25.0171 24.6453 24.0693 23.6975 23.1222C23.6582 23.0847 23.617 23.0497 23.5658 23.0023ZM24.9531 15.9864C24.9631 12.1266 21.8469 9.00609 17.9784 9.00047C14.1205 8.99485 11.0069 12.0904 10.99 15.9477C10.9732 19.8168 14.0831 22.9461 17.9634 22.9642C21.8057 22.9823 24.9431 19.8499 24.9531 15.9864Z" fill="#3D3D3D"/>
</g>
<defs>
<clipPath id="clip0_1914_48">
<rect width="19.9913" height="20" fill="white" transform="translate(9 7)"/>
</clipPath>
</defs>
</svg>
