<svg width="35" height="35" viewBox="0 0 35 35" fill="none" xmlns="http://www.w3.org/2000/svg">
<rect width="35" height="35" rx="4" fill="white"/>
<g clip-path="url(#clip0_1914_39)">
<path d="M20.294 24.8745H14.2408C11.6566 24.8745 9.55412 22.7721 9.55412 20.1879V15.384C9.55412 12.9817 8.35676 10.7581 6.35123 9.43578C5.99106 9.19832 5.89162 8.71388 6.12908 8.35371C6.36653 7.9935 6.85094 7.89403 7.21119 8.13156C8.35606 8.88643 9.28487 9.88203 9.94905 11.0283C10.0926 11.1891 11.2499 12.4158 13.1473 12.4158H22.142C24.596 12.3699 26.5168 14.8327 25.8752 17.2014L24.8397 21.3283C24.3159 23.4163 22.4466 24.8745 20.294 24.8745V24.8745ZM10.9193 13.5368C11.0491 14.1367 11.1163 14.7553 11.1163 15.384V20.1879C11.1163 21.9107 12.518 23.3123 14.2408 23.3123H20.294C21.7291 23.3123 22.9752 22.3401 23.3245 20.9482L24.3599 16.8212C24.7412 15.4137 23.5997 13.9508 22.142 13.978H13.1472C12.2891 13.978 11.5422 13.793 10.9193 13.5368V13.5368ZM13.8502 27.0226C13.8502 26.4833 13.4131 26.0462 12.8738 26.0462C11.5783 26.0978 11.5794 27.9479 12.8738 27.9989C13.4131 27.9989 13.8502 27.5618 13.8502 27.0226ZM21.6222 27.0226C21.6222 26.4833 21.1851 26.0462 20.6459 26.0462C19.3503 26.0978 19.3514 27.9479 20.6459 27.9989C21.1851 27.9989 21.6222 27.5618 21.6222 27.0226ZM22.9231 16.3214C22.9231 15.89 22.5734 15.5403 22.142 15.5403H13.4597C12.4233 15.5815 12.4241 17.0616 13.4597 17.1025H22.142C22.5734 17.1025 22.9231 16.7528 22.9231 16.3214Z" fill="#46A358"/>
</g>
<defs>
<clipPath id="clip0_1914_39">
<rect width="20" height="20" fill="white" transform="translate(6 8)"/>
</clipPath>
</defs>
</svg>
